<svg fill="#ffffff" xmlns="http://www.w3.org/2000/svg"  viewBox="0 0 64 64" width="256px" height="256px"><path d="M32.52,5c-11.565,0-22.5,11.421-22.5,23.5c0,12.044,10.08,30.5,22.5,30.5	s22.5-18.456,22.5-30.5C55.02,16.421,44.085,5,32.52,5z M45.093,14.887c1.934,1.993,3.505,4.368,4.546,6.926	c-1.814-0.175-3.638-0.321-5.471-0.439c-2.601-2.241-5.317-3.995-8.31-5.306c2.229-0.698,3.862-1.039,6.662-1.145h2.574	L45.093,14.887z M47.02,30.139c0,2.683-2.465,4.861-5.5,4.861c-2.391,0-4.456-0.989-5.186-3l10.16-3.935	C46.84,28.714,47.02,29.422,47.02,30.139z M32.52,9c2.781,0,5.542,0.872,8.055,2.336c-2.878,0.658-5.291,2.148-7.055,3.164	c-0.213,0.123-0.462,0.269-0.711,0.417c-3.222-1.032-6.789-1.63-10.87-1.832C25.052,10.578,28.767,9,32.52,9z M18.155,16.992	l1,0.008c8.829,0.067,15.582,0.412,21.206,4.173c-8.194-0.345-16.548-0.122-24.97,0.667C16.088,20.12,17.026,18.487,18.155,16.992z M29.746,32c-0.73,2.011-2.965,3-5.356,3c-3.035,0-5.37-2.243-5.37-4.926c0-0.717,0.179-1.426,0.526-2.074L29.746,32z M32.52,55	c-3.599,0-7.49-2.427-10.934-6.736c5.363,3.065,10.63,4.865,15.576,5.485C35.599,54.566,34.034,55,32.52,55z M41.947,50H41.02	c-6.426,0-13.863-1.187-21.973-5.428c-0.654-1.087-1.257-2.203-1.797-3.347c3.439,0.329,6.861,0.555,10.26,0.668l1.538,0.855	c5.94,3.303,9.614,4.174,15.06,4.666C43.407,48.357,42.685,49.221,41.947,50z M45.556,45.28c-3.538-0.367-6.462-1.607-9.7-3.334	c4.024-0.079,8.004-0.317,11.928-0.708C47.127,42.627,46.379,43.981,45.556,45.28z"/></svg>